<svg xmlns="http://www.w3.org/2000/svg" width="30" height="30" viewBox="0 0 30 30"><g fill="none" fill-rule="evenodd"><circle cx="15" cy="15" r="15" fill="#E7ECF0"/><path fill="#CFD6DB" fill-rule="nonzero" d="M23.3220807 11.3576662C23.3220807 11.2352046 23.25685 11.1223841 23.1510038 11.0612559 23.0451577 11.0001277 22.9151064 11.000538 22.8092602 11.0616662L16.2037218 14.8754098C15.8523372 15.0782816 15.6357218 15.4530508 15.6357218 15.8589995L15.6357218 23.4866918C15.6357218 23.6087431 15.7007474 23.7215636 15.8065936 23.7824867 15.9122346 23.8436149 16.042491 23.84382 16.1485423 23.7826918L22.5015679 20.1147944C23.0094654 19.8214611 23.3220807 19.2799226 23.3220807 18.6934611L23.3220807 11.3576662zM7.19073977 11.0614611C7.08489362 11.000538 6.95484234 11.0003328 6.84899618 11.0614611 6.74315003 11.1225893 6.67791926 11.2352046 6.67791926 11.3572559 6.67791926 11.3572559 6.67791926 11.3574611 6.67791926 11.3576662L6.67791926 18.6934611C6.67791926 19.2797175 6.99073977 19.8214611 7.49843208 20.1147944L13.8514577 23.7824867C13.8514577 23.7824867 13.8516628 23.7826918 13.851868 23.7826918 13.9577141 23.84382 14.0879705 23.8436149 14.1938167 23.7824867 14.2994577 23.7213585 14.3642782 23.6083328 14.3642782 23.4864867L14.3642782 15.8587944C14.3642782 15.4528457 14.147868 15.0780764 13.7962782 14.8752046L7.19073977 11.0614611zM22.173641 10.0998062C22.2794872 10.0388832 22.3445128 9.92606265 22.3447179 9.80401136 22.3447179 9.68196008 22.2798974 9.56893444 22.1740513 9.50801136 22.1740513 9.50801136 22.1738462 9.50780623 22.173641 9.50780623L15.8206154 5.83970367C15.3127179 5.54657547 14.6872821 5.54657547 14.1795897 5.83970367L7.8265641 9.50739598C7.82635897 9.50739598 7.82615385 9.50760111 7.82615385 9.50760111 7.72030769 9.56872931 7.65528205 9.68175495 7.65528205 9.80380623 7.65548718 9.92606265 7.72071795 10.0384729 7.8265641 10.0996011L14.4321026 13.9135498C14.7834872 14.1164216 15.2165128 14.1164216 15.5678974 13.9135498L22.173641 10.0998062z"/></g></svg>