<svg xmlns="http://www.w3.org/2000/svg" width="24" height="24" viewBox="0 0 24 24"><path fill="#A0AEB8" fill-rule="evenodd" d="M1.45611777.072438C.656345045.072438-4.09090909e-7.71685-4.09090909e-7 1.49925L-4.09090909e-7 6.687438C-4.09090909e-7 7.46984.656345045 8.11425 1.45611777 8.11425L6.74642005 8.11425C7.54621323 8.11425 8.20253823 7.46983 8.20253823 6.687438L8.20253823 1.49925C8.20253823.71686 7.54621323.072438 6.74642005.072438L1.45611777.072438zM11.2535178.072438C10.4549928.072438 9.79742005.715916 9.79742005 1.49925L9.79742005 6.687438C9.79742005 7.470772 10.4549928 8.11425 11.2535178 8.11425L16.545886 8.11425C17.3444118 8.11425 18.0000004 7.46983 18.0000004 6.687438L18.0000004 1.49925C18.0000004.71686 17.3444118.072438 16.545886.072438L11.2535178.072438zM1.45611777 9.62862C.655363227 9.62862-4.09090909e-7 10.27428-4.09090909e-7 11.05544L-4.09090909e-7 16.24562C-4.09090909e-7 17.0268.655363227 17.67244 1.45611777 17.67244L6.74642005 17.67244C7.54719505 17.67244 8.20253823 17.02678 8.20253823 16.24562L8.20253823 11.05544C8.20253823 10.27428 7.54719505 9.62862 6.74642005 9.62862L1.45611777 9.62862zM11.2535178 9.62862C10.454011 9.62862 9.79742005 10.27334 9.79742005 11.05544L9.79742005 16.24562C9.79742005 17.02772 10.454011 17.67244 11.2535178 17.67244L16.545886 17.67244C17.3453936 17.67244 18.0000004 17.02678 18.0000004 16.24562L18.0000004 11.05544C18.0000004 10.27428 17.3453936 9.62862 16.545886 9.62862L11.2535178 9.62862z" transform="translate(3 3)"/></svg>