<svg xmlns="http://www.w3.org/2000/svg" width="106" height="30" viewBox="0 0 106 30">
    <defs>
        <linearGradient id="prefix__a" x1="50%" x2="50%" y1="100%" y2="0%">
            <stop offset="0%" stop-color="#1410B8"/>
            <stop offset="100%" stop-color="#4ED8E4"/>
        </linearGradient>
    </defs>
    <g fill="none" fill-rule="evenodd">
        <path fill="#292929" d="M14.504 10.524c0-3.404-2.84-5.661-6.718-5.661-4.19 0-7.098 2.049-7.098 5.418 0 3.334 2.77 4.48 6.267 5.07 4.329.73 5.194 1.32 5.229 2.71.034 1.77-2.008 2.708-4.71 2.708-3.427 0-4.466-1.702-4.57-3.16h-2.7c.311 2.847 1.835 5.591 7.34 5.591 5.402 0 7.34-2.744 7.34-5.279 0-3.16-2.527-4.237-6.96-4.966-3.22-.521-4.535-1.285-4.535-2.952s1.697-2.71 4.155-2.71c3.047 0 4.12 1.633 4.259 3.23h2.7zm3.162-3.463h3.295v11.8c0 3.553 1.133 4.477 3.506 4.477.85 0 1.807-.036 2.799-.107v-2.487c-.532.071-1.205.107-1.842.107-1.24 0-1.7-.71-1.7-2.31V7.061H27.3V4.787h-3.577V.173H20.96v4.614h-3.295v2.274zm24.867 16.063V20.78h-.071c-1.24 2.202-3.978 2.344-6.033 2.344-4.215 0-6.33-1.99-6.33-4.796 0-3.269 1.772-5.187 6.624-5.436 1.949-.106 3.861-.213 5.81-.284v-1.35c0-2.274-.957-4.121-4.499-4.121-3.259 0-4.322 1.385-4.676 3.375h-2.727c.567-3.98 3.259-5.65 7.438-5.65 4.747 0 7.226 2.168 7.226 5.97v8.81c0 1.102.142 2.488.248 3.482h-3.01zm0-6.747v-1.673l-4.676.213c-3.011.142-4.782.96-4.782 3.269 0 1.776 1.571 2.514 4.086 2.514 2.409 0 4.361-.868 5.372-4.323zm5.516-9.325h3.294v11.809c0 3.553 1.082 4.263 3.455 4.263.85 0 1.859.072 2.85 0v-2.38c-.53.071-1.204.107-1.841.107-1.24 0-1.7-.71-1.7-2.31V7.052h3.577V4.778h-3.578V.173h-2.763v4.605H48.05v2.274zm17.653-2.265v18.337h-2.857V4.787h2.857zm33.635-.095c3.59 0 6.659 1.168 6.659 6.176v11.938h-2.763v-10.73c0-3.695-1.913-4.832-3.896-4.832-2.584 0-4.96 1.688-4.889 5.935v9.627h-2.833V5.042h2.763v2.017h.07c1.456-2.017 2.524-2.367 4.889-2.367z" transform="translate(0 .746)"/>
        <path fill="url(#prefix__a)" d="M85.698 26.563v2.292H71.986v-2.292h13.712zM78.842 4.787c5.049 0 9.141 4.105 9.141 9.169s-4.092 9.168-9.14 9.168c-5.05 0-9.142-4.104-9.142-9.168 0-5.064 4.093-9.169 9.141-9.169zm0 2.75c-3.534 0-6.399 2.874-6.399 6.419 0 3.544 2.865 6.418 6.4 6.418 3.533 0 6.398-2.874 6.398-6.418 0-3.545-2.865-6.418-6.399-6.418z" transform="translate(0 .746)"/>
    </g>
</svg>
