<svg xmlns="http://www.w3.org/2000/svg" width="12" height="12" viewBox="0 0 12 12">
  <path fill-rule="evenodd" d="M11.5930378,0.326463847 C12.0340572,0.764117689 12.0367855,1.47642306 11.5991316,1.91744243 L3.825,9.75 L7.12500002,9.75000001 C7.74632036,9.75000001 8.25000002,10.2536797 8.25000002,10.875 C8.25000002,11.4963203 7.74632036,12 7.12500002,12 L1.12500005,12 L1.12500005,12 C0.958510325,12 0.800467578,11.9638342 0.658299377,11.8989302 C0.635554702,11.8885909 0.613455718,11.8776197 0.591661446,11.8658771 C0.577864079,11.8583454 0.564352176,11.8506876 0.551018034,11.842762 C0.532055633,11.8316091 0.513177375,11.8196251 0.494591686,11.8070235 C0.477765228,11.7955101 0.4612126,11.7836239 0.445004206,11.7713082 C0.432828376,11.7621266 0.421088828,11.7528183 0.409495752,11.743242 C0.388521209,11.7258801 0.368220004,11.7078614 0.348594732,11.6891402 C0.343417137,11.684206 0.337966995,11.6789043 0.332557667,11.6735362 L0.313773916,11.6544487 C0.296995803,11.6369909 0.280775828,11.6189927 0.26514269,11.6004829 L0.332557667,11.6735362 C0.29505602,11.6363207 0.260723561,11.5971193 0.229561576,11.5562677 C0.216640726,11.5391746 0.204269642,11.5219485 0.192382562,11.5043684 C0.181981064,11.4891719 0.172061019,11.4736933 0.162557447,11.4580322 C0.15072499,11.4383578 0.139272845,11.4181196 0.12844165,11.397504 C0.119549823,11.3807048 0.111277467,11.3639098 0.103449203,11.3469596 C0.0966353615,11.3321498 0.0901444106,11.3172834 0.0839694686,11.3022538 C0.0599875451,11.2437465 0.0411178119,11.1835431 0.0273988484,11.1224124 C0.00943183705,11.0428427 5.18339502e-08,10.9600228 5.18339502e-08,10.875 L5.18339502e-08,4.87500003 C5.18339502e-08,4.25367969 0.503679706,3.75000004 1.12500005,3.75000004 C1.74632039,3.75000004 2.25000004,4.25367969 2.25000004,4.87500003 L2.25,8.143 L10.0020592,0.332557667 C10.4397131,-0.108461699 11.1520184,-0.111189995 11.5930378,0.326463847 Z" transform="matrix(1 0 0 -1 0 12)"/>
</svg>
