<svg xmlns="http://www.w3.org/2000/svg" width="12" height="12" viewBox="0 0 12 12"><path d="M10.434556,0.0472582077 C11.3252268,0.0472582077 12.0472582,0.769289593 12.0472582,1.65996044 L12.0472582,1.65996044 L12.0472582,10.434556 C12.0472582,11.3252268 11.3252268,12.0472582 10.434556,12.0472582 L10.434556,12.0472582 L1.65996044,12.0472582 C0.769289593,12.0472582 0.0472582077,11.3252268 0.0472582077,10.434556 L0.0472582077,10.434556 L0.0472582077,1.65996044 C0.0472582077,0.769289593 0.769289593,0.0472582077 1.65996044,0.0472582077 L1.65996044,0.0472582077 Z M10.434556,1.25678488 L1.65996044,1.25678488 C1.43729273,1.25678488 1.25678488,1.43729273 1.25678488,1.65996044 L1.25678488,1.65996044 L1.25678488,10.434556 C1.25678488,10.6572237 1.43729273,10.8377315 1.65996044,10.8377315 L1.65996044,10.8377315 L10.434556,10.8377315 C10.6572237,10.8377315 10.8377315,10.6572237 10.8377315,10.434556 L10.8377315,10.434556 L10.8377315,1.65996044 C10.8377315,1.43729273 10.6572237,1.25678488 10.434556,1.25678488 L10.434556,1.25678488 Z M3.58575264,2.33278062 C3.86189501,2.33278062 4.08575264,2.55663825 4.08575264,2.83278062 L4.08575264,9.4035035 C4.08575264,9.67964587 3.86189501,9.9035035 3.58575264,9.9035035 L2.56987484,9.9035035 C2.29373247,9.9035035 2.06987484,9.67964587 2.06987484,9.4035035 L2.06987484,2.83278062 C2.06987484,2.55663825 2.29373247,2.33278062 2.56987484,2.33278062 L3.58575264,2.33278062 Z M9.52464157,2.33278062 C9.80078395,2.33278062 10.0246416,2.55663825 10.0246416,2.83278062 L10.0246416,8.24173753 C10.0246416,8.5178799 9.80078395,8.74173753 9.52464157,8.74173753 L8.50876378,8.74173753 C8.2326214,8.74173753 8.00876378,8.5178799 8.00876378,8.24173753 L8.00876378,2.83278062 C8.00876378,2.55663825 8.2326214,2.33278062 8.50876378,2.33278062 L9.52464157,2.33278062 Z M6.55519711,2.33278062 C6.83133948,2.33278062 7.05519711,2.55663825 7.05519711,2.83278062 L7.05519711,6.74947725 C7.05519711,7.02561963 6.83133948,7.24947725 6.55519711,7.24947725 L5.53931931,7.24947725 C5.26317694,7.24947725 5.03931931,7.02561963 5.03931931,6.74947725 L5.03931931,2.83278062 C5.03931931,2.55663825 5.26317694,2.33278062 5.53931931,2.33278062 L6.55519711,2.33278062 Z"/></svg>