<svg xmlns="http://www.w3.org/2000/svg" width="12" height="12" viewBox="0 0 12 12"><path fill-rule="evenodd" d="M3.48867824,0 C4.43088978,0 5.19470315,0.763813368 5.19470315,1.70602491 C5.19470315,2.35829444 4.82864962,2.92506759 4.29076526,3.21212164 L4.28853172,7.45436808 C4.36873811,7.39333875 4.45352751,7.33474553 4.54276889,7.27866596 C4.88191212,7.0655473 5.16168853,6.96949582 5.60294178,6.89440785 L6.23395452,6.80307788 C6.27723549,6.79614664 6.31424098,6.78944672 6.35362912,6.78158815 C6.6605787,6.72034677 6.85777909,6.62180045 7.06332517,6.40368286 C7.46319124,5.97936038 7.67246955,5.51232288 7.70587228,4.97329073 L7.70712234,4.9377793 C7.17039223,4.65036982 6.80529685,4.08422711 6.80529685,3.43281181 C6.80529685,2.49060027 7.56911022,1.7267869 8.51132176,1.7267869 C9.4535333,1.7267869 10.2173467,2.49060027 10.2173467,3.43281181 C10.2173467,4.08660743 9.84957824,4.65450614 9.30963054,4.94091878 L9.31179251,4.77505196 C9.32203645,5.80965785 8.95429301,6.73200546 8.22874348,7.50193068 C7.77681486,7.98149993 7.28029923,8.22962211 6.66695055,8.35199504 L6.5008005,8.38219348 L6.1768441,8.42815088 C5.72651272,8.48750035 5.56332625,8.52863635 5.39480259,8.63453715 C5.08397883,8.82985977 4.94566127,9.01353936 4.91728641,9.22260467 L4.9116772,9.30226644 L4.87654483,9.30160673 C5.07681869,9.58119942 5.19470315,9.92382056 5.19470315,10.2939751 C5.19470315,11.2361866 4.43088978,12 3.48867824,12 C2.5464667,12 1.78265334,11.2361866 1.78265334,10.2939751 C1.78265334,9.64170556 2.14870687,9.07493241 2.68659123,8.78787836 L2.68659123,3.21212164 C2.14870687,2.92506759 1.78265334,2.35829444 1.78265334,1.70602491 C1.78265334,0.763813368 2.5464667,0 3.48867824,0 Z M3.48867824,9.29966494 C2.93953591,9.29966494 2.49436809,9.74483276 2.49436809,10.2939751 C2.49436809,10.8431174 2.93953591,11.2882852 3.48867824,11.2882852 C4.03782057,11.2882852 4.48298839,10.8431174 4.48298839,10.2939751 C4.48298839,9.74483276 4.03782057,9.29966494 3.48867824,9.29966494 Z M8.51132176,2.43850166 C7.96217943,2.43850166 7.51701161,2.88366948 7.51701161,3.43281181 C7.51701161,3.98195414 7.96217943,4.42712196 8.51132176,4.42712196 C9.06046409,4.42712196 9.50563191,3.98195414 9.50563191,3.43281181 C9.50563191,2.88366948 9.06046409,2.43850166 8.51132176,2.43850166 Z M3.48867824,0.711714759 C2.93953591,0.711714759 2.49436809,1.15688258 2.49436809,1.70602491 C2.49436809,2.25516724 2.93953591,2.70033506 3.48867824,2.70033506 C4.03782057,2.70033506 4.48298839,2.25516724 4.48298839,1.70602491 C4.48298839,1.15688258 4.03782057,0.711714759 3.48867824,0.711714759 Z"/></svg>