<svg xmlns="http://www.w3.org/2000/svg" xmlns:xlink="http://www.w3.org/1999/xlink" width="12" height="12" viewBox="0 0 12 12"><defs><path id="chat-a" d="M8.17390027,8.66877676 C8.27348168,8.66877676 8.37247558,8.69603377 8.46280385,8.74843949 L9.59961812,9.41585957 L9.38224278,8.52631751 C9.31614893,8.25269335 9.40324594,7.96160062 9.60329001,7.78917372 C10.3450099,7.14886006 10.7543512,6.34741384 10.7543512,5.532565 C10.7543512,3.63707391 8.57619153,2.03613915 5.9994125,2.03613915 C3.42263347,2.03613915 1.2457957,3.63692332 1.2457957,5.53241441 C1.2457957,7.42730314 3.4224866,9.02823789 5.9994125,9.02823789 C6.6895792,9.02823789 7.3590365,8.9172522 7.99059999,8.69934677 C8.04966242,8.67915693 8.111495,8.66878565 8.1737534,8.66862617 L8.17390027,8.66877676 Z M10.0292282,11.2450905 L8.10663142,10.1155062 C7.43129911,10.3207619 6.72380113,10.4248204 5.9994125,10.4248204 C2.69134171,10.4248204 3.63797881e-12,8.23040586 3.63797881e-12,5.532565 C3.63797881e-12,2.83472414 2.69134171,0.639707204 5.9994125,0.639707204 C9.30807079,0.639707204 12,2.83472414 12,5.532565 C12,6.65446924 11.537343,7.72562425 10.6894323,8.58986699 L11.1012705,10.2802529 C11.1883675,10.6383587 11.1005361,10.9776406 10.8683264,11.1865106 C10.7393699,11.3024658 10.586179,11.3602928 10.4253507,11.3602928 C10.2952192,11.3602928 10.160094,11.322645 10.0292282,11.2450905 L10.0292282,11.2450905 Z"/></defs><use fill-rule="evenodd" xlink:href="#chat-a"/></svg>