<svg xmlns="http://www.w3.org/2000/svg" width="12" height="12" viewBox="0 0 12 12"><path fill-rule="evenodd" d="M8.23339986,7.10542736e-15 C8.67522766,7.02426491e-15 9.03339986,0.3581722 9.03339986,0.8 L9.033,0.995 L10,0.995127763 C11.1046,0.995127763 12,1.89052776 12,2.99512776 L12,9.99512776 C12,11.0997278 11.1046,11.9951278 10,11.9951278 L2,11.9951278 C0.8954,11.9951278 0,11.0997278 0,9.99512776 L0,2.99512776 C0,1.89052776 0.8954,0.995127763 2,0.995127763 L2.966,0.995 L2.96660014,0.8 C2.96660014,0.3581722 3.32477234,7.18658981e-15 3.76660014,7.10542736e-15 C4.20842794,7.02426491e-15 4.56660014,0.3581722 4.56660014,0.8 L4.566,0.995 L7.433,0.995 L7.43339986,0.8 C7.43339986,0.3581722 7.79157206,7.18658981e-15 8.23339986,7.10542736e-15 Z M10.5,5.77712776 L1.5,5.77712776 L1.5,9.99512776 C1.5,10.2712701 1.72385763,10.4951278 2,10.4951278 L10,10.4951278 C10.2761424,10.4951278 10.5,10.2712701 10.5,9.99512776 L10.5,5.77712776 Z M9.45576105,7.18426576 C9.73190342,7.18426576 9.95576105,7.40812339 9.95576105,7.68426576 L9.95576105,9.44878909 C9.95576105,9.72493147 9.73190342,9.94878909 9.45576105,9.94878909 L7.69123772,9.94878909 C7.41509534,9.94878909 7.19123772,9.72493147 7.19123772,9.44878909 L7.19123772,7.68426576 C7.19123772,7.40812339 7.41509534,7.18426576 7.69123772,7.18426576 L9.45576105,7.18426576 Z M2.966,2.495 L2,2.49512776 C1.72385763,2.49512776 1.5,2.71898539 1.5,2.99512776 L1.5,4.27712776 L10.5,4.27712776 L10.5,2.99512776 C10.5,2.71898539 10.2761424,2.49512776 10,2.49512776 L9.033,2.495 L9.03339986,2.62279945 C9.03339986,3.06462725 8.67522766,3.42279945 8.23339986,3.42279945 C7.79157206,3.42279945 7.43339986,3.06462725 7.43339986,2.62279945 L7.433,2.495 L4.566,2.495 L4.56660014,2.62279945 C4.56660014,3.06462725 4.20842794,3.42279945 3.76660014,3.42279945 C3.32477234,3.42279945 2.96660014,3.06462725 2.96660014,2.62279945 L2.966,2.495 Z"/></svg>