<svg xmlns="http://www.w3.org/2000/svg" width="12" height="12" viewBox="0 0 12 12"><path d="M3.81233552,0.339305905 L3.66493889,0.245935695 C3.19741518,-0.0726325866 2.58517522,-0.0824829819 2.1076452,0.220880228 C1.87143199,0.359459095 1.63244305,0.533992174 1.41238959,0.730785775 C0.813384481,1.29306255 0.436512637,1.93089604 0.31077159,2.67151081 C0.211734666,3.30744694 0.263131465,3.94903579 0.459417792,4.5529021 C0.69076374,5.3320598 1.08875061,6.04395182 1.71491745,6.89719014 L1.90494214,7.14613789 L2.09705427,7.38738643 L2.2993674,7.63066964 L2.51999507,7.88572145 L2.90302476,8.31165821 L3.80404122,9.27867028 C4.40252407,9.93687392 5.07979888,10.5316284 5.81708757,11.0451995 C6.49473325,11.5309242 7.28697433,11.8500794 8.120402,11.9710064 C8.27232794,11.9890846 8.40809373,11.9980222 8.54404994,12 C9.73026142,11.9751637 10.6763006,11.4407996 11.4156605,10.470139 C11.7935947,10.007216 11.84687,9.33609468 11.5365809,8.80120419 C11.1785992,8.10485071 10.5840291,7.51928924 9.85467504,7.15740941 C9.48606915,6.93971505 8.97990323,6.94967242 8.58273149,7.20384786 L7.86987871,7.66656386 L7.6359018,7.80569642 L7.45993435,7.9003691 L7.17129847,7.68464729 L7.05152098,7.58642702 C6.3573793,6.98377938 5.71571527,6.31895183 5.13621324,5.6015963 L4.92374549,5.33031656 L4.58750566,4.86662732 L4.26379732,4.406917 L4.31951675,4.32259544 L4.61030648,3.928111 L5.07470571,3.31678345 C5.31347865,2.99742826 5.37844216,2.58805668 5.25728021,2.21831703 L5.20998247,2.09671617 C4.95216321,1.39974422 4.45809238,0.774942819 3.81233552,0.339305905 Z M2.95896134,1.28201259 L3.14973394,1.40522713 C3.56030786,1.69377396 3.87538594,2.10072816 4.05137643,2.57381495 L4.05782603,2.58362336 L3.3746419,3.48808142 L3.26820449,3.63827297 L3.1764315,3.77869326 C2.93548738,4.11682674 2.91755786,4.59270867 3.13550022,4.97408511 L3.26595962,5.1672409 L3.66904739,5.73852456 L3.92768567,6.09189402 L4.16233046,6.39115764 C4.78678817,7.16416918 5.47976457,7.88216142 6.23181356,8.53507382 L6.3881688,8.6638631 L6.57412322,8.80488918 L6.77882683,8.95452835 C7.10709461,9.21006013 7.57398505,9.2524172 7.95935193,9.05186599 C8.15102705,8.95756275 8.34953399,8.84639886 8.54179395,8.72504353 L9.25917967,8.25984055 C9.78728772,8.52355244 10.1866163,8.91683063 10.4371141,9.40291611 C10.5006798,9.51404335 10.4923396,9.61910625 10.4311616,9.69412996 C9.89941773,10.3916561 9.29988437,10.7302986 8.53983385,10.7464699 L8.37540535,10.7373346 C8.34529369,10.7347639 8.31439199,10.7316679 8.28354539,10.7280446 C7.66553218,10.6381397 7.06201076,10.3950105 6.54055508,10.0212935 C5.98461656,9.63398766 5.47076947,9.19956459 5.00163923,8.72101175 L3.98054129,7.63117505 L3.5884493,7.20069621 L3.3669709,6.94942537 L3.16845044,6.71603163 L2.89688757,6.37940755 L2.72210537,6.1506005 C2.17736296,5.40826558 1.84428008,4.81246944 1.65647771,4.18053986 C1.5162884,3.74859941 1.48081876,3.30583007 1.54820853,2.87284357 C1.62341954,2.43020599 1.85961725,2.03045522 2.25940207,1.65501327 C2.40654403,1.52367368 2.57856934,1.39804399 2.76170956,1.29027417 C2.83482616,1.24425589 2.90521241,1.24538834 2.95896134,1.28201259 Z"/></svg>