<svg xmlns="http://www.w3.org/2000/svg" width="12" height="12" viewBox="0 0 12 12"><path d="M9.22469613,4.4806492e-05 L9.34196845,0.00931045723 C9.77523638,0.0726827616 10.0862134,0.447019708 10.0817838,0.873034529 L10.0726106,0.990306853 L9.77383352,3.032 L11.6162411,3.03255988 C12.0939262,3.03255988 12.4811665,3.41980016 12.4811665,3.89748526 C12.4811665,4.33536327 12.1557771,4.69724251 11.7336063,4.7545149 L11.6162411,4.76241065 L9.52083352,4.762 L9.09683352,7.66 L10.7628635,7.66065202 C11.2405486,7.66065202 11.6277889,8.04789231 11.6277889,8.52557741 C11.6277889,8.96345541 11.3023995,9.32533465 10.8802288,9.38260704 L10.7628635,9.39050279 L8.84283352,9.39 L8.57048495,11.260138 C8.50135153,11.7327939 8.06214448,12.0599135 7.58948856,11.9907801 C7.15622062,11.9274078 6.84524361,11.5530708 6.84967326,11.127056 L6.85884643,11.0097837 L7.09583352,9.39 L3.91383352,9.39 L3.64098393,11.260138 C3.57185051,11.7327939 3.13264346,12.0599135 2.65998753,11.9907801 C2.2267196,11.9274078 1.91574259,11.5530708 1.92017223,11.127056 L1.92934541,11.0097837 L2.16583352,9.39 L0.383758904,9.39050279 C-0.0939261959,9.39050279 -0.481166481,9.00326251 -0.481166481,8.52557741 C-0.481166481,8.0876994 -0.155777075,7.72582016 0.266393653,7.66854777 L0.383758904,7.66065202 L2.41883352,7.66 L2.84283352,4.762 L1.23713648,4.76241065 C0.759451378,4.76241065 0.372211093,4.37517036 0.372211093,3.89748526 C0.372211093,3.45960726 0.697600499,3.09772802 1.11977123,3.04045563 L1.23713648,3.03255988 L3.09583352,3.032 L3.43147103,0.739952582 C3.49484334,0.30668465 3.86918029,-0.00429235998 4.29519511,4.4806492e-05 L4.41246743,0.00931045723 C4.84573536,0.0726827616 5.15671237,0.447019708 5.15228273,0.873034529 L5.14310955,0.990306853 L4.84483352,3.032 L8.02583352,3.032 L8.36097206,0.739952582 C8.42434436,0.30668465 8.79868131,-0.00429235998 9.22469613,4.4806492e-05 Z M7.77283352,4.762 L4.59183352,4.762 L4.16783352,7.66 L7.34883352,7.66 L7.77283352,4.762 Z"/></svg>