<svg xmlns="http://www.w3.org/2000/svg" width="12" height="12" viewBox="0 0 12 12"><path fill-rule="evenodd" d="M6.92537313,2.57571742e-14 C7.2238806,2.57571742e-14 7.46268657,0.180904523 7.52238806,0.48241206 L7.52238806,0.48241206 L7.76119403,1.5678392 L7.76119403,1.5678392 L7.82089552,1.5678392 L8.71641791,0.964824121 C8.95522388,0.783919598 9.31343284,0.844221106 9.49253731,1.02512563 L9.49253731,1.02512563 L10.9253731,2.4120603 C11.1044776,2.65326633 11.1641791,2.95477387 10.9850746,3.1959799 L10.9850746,3.1959799 L10.3880597,4.10050251 L10.3880597,4.10050251 L10.3880597,4.16080402 L11.4626866,4.40201005 C11.761194,4.40201005 11.9402985,4.70351759 12,4.94472362 L12,4.94472362 L12,6.93467337 C12,7.2361809 11.8208955,7.47738693 11.5223881,7.53768844 L11.5223881,7.53768844 L10.4477612,7.77889447 L10.4477612,7.77889447 L10.4477612,7.83919598 L11.0447761,8.74371859 C11.2238806,8.98492462 11.1641791,9.34673367 10.9850746,9.52763819 L10.9850746,9.52763819 L9.55223881,10.9748744 C9.31343284,11.1557789 9.01492537,11.2160804 8.7761194,11.0351759 L8.7761194,11.0351759 L7.88059701,10.4321608 L7.88059701,10.4321608 L7.82089552,10.4321608 L7.58208955,11.5175879 C7.52238806,11.8190955 7.28358209,12 6.98507463,12 L6.98507463,12 L5.01492537,12 C4.71641791,12 4.47761194,11.8190955 4.41791045,11.5175879 L4.41791045,11.5175879 L4.17910448,10.4321608 L4.17910448,10.4321608 L4.11940299,10.4321608 L3.2238806,11.0351759 C2.98507463,11.2160804 2.62686567,11.1557789 2.44776119,10.9748744 L2.44776119,10.9748744 L1.01492537,9.52763819 C0.835820896,9.28643216 0.776119403,8.98492462 0.955223881,8.74371859 L0.955223881,8.74371859 L1.55223881,7.83919598 L1.55223881,7.83919598 L1.55223881,7.77889447 L0.47761194,7.53768844 C0.179104478,7.47738693 -9.76996262e-15,7.2361809 -9.76996262e-15,6.93467337 L-9.76996262e-15,6.93467337 L-9.76996262e-15,4.94472362 C-9.76996262e-15,4.70351759 0.179104478,4.40201005 0.47761194,4.40201005 L0.47761194,4.40201005 L1.55223881,4.16080402 L1.55223881,4.16080402 L1.55223881,4.10050251 L0.955223881,3.1959799 C0.835820896,2.95477387 0.835820896,2.59296482 1.07462687,2.4120603 L1.07462687,2.4120603 L2.44776119,1.02512563 C2.62686567,0.783919598 2.98507463,0.783919598 3.2238806,0.904522613 L3.2238806,0.904522613 L4.11940299,1.50753769 L4.11940299,1.50753769 L4.17910448,1.50753769 L4.35820896,0.48241206 C4.41791045,0.180904523 4.65671642,2.57571742e-14 4.95522388,2.57571742e-14 L4.95522388,2.57571742e-14 Z M6.50746269,1.14572864 L5.49253731,1.14572864 L5.25373134,1.98994975 C5.19402985,2.23115578 5.01492537,2.4120603 4.8358209,2.47236181 C4.65671642,2.53266332 4.53731343,2.65326633 4.35820896,2.71356784 C4.17910448,2.83417085 3.94029851,2.83417085 3.76119403,2.71356784 L3.76119403,2.71356784 L2.98507463,2.17085427 L2.20895522,2.89447236 L2.80597015,3.73869347 C2.92537313,3.91959799 2.92537313,4.16080402 2.80597015,4.34170854 C2.74626866,4.46231156 2.68656716,4.64321608 2.62686567,4.8241206 C2.50746269,5.06532663 2.3880597,5.18592965 2.14925373,5.24623116 L2.14925373,5.24623116 L1.19402985,5.42713568 L1.19402985,6.51256281 L2.08955224,6.69346734 C2.26865672,6.75376884 2.44776119,6.93467337 2.50746269,7.11557789 C2.56716418,7.29648241 2.68656716,7.41708543 2.74626866,7.59798995 C2.86567164,7.77889447 2.86567164,8.0201005 2.74626866,8.20100503 L2.74626866,8.20100503 L2.20895522,8.98492462 L2.98507463,9.76884422 L3.82089552,9.22613065 C4,9.10552764 4.23880597,9.04522613 4.41791045,9.16582915 C4.59701493,9.22613065 4.7761194,9.28643216 4.89552239,9.34673367 C5.13432836,9.40703518 5.25373134,9.5879397 5.31343284,9.82914573 L5.31343284,9.82914573 L5.49253731,10.7939698 L6.50746269,10.7939698 L6.80597015,9.88944724 C6.86567164,9.64824121 7.04477612,9.46733668 7.2238806,9.40703518 C7.40298507,9.40703518 7.52238806,9.28643216 7.70149254,9.22613065 C7.88059701,9.10552764 8.11940299,9.10552764 8.29850746,9.22613065 L8.29850746,9.22613065 L9.07462687,9.76884422 L9.79104478,9.04522613 L9.25373134,8.26130653 C9.13432836,8.08040201 9.07462687,7.83919598 9.19402985,7.65829146 C9.31343284,7.41708543 9.37313433,7.29648241 9.43283582,7.11557789 C9.49253731,6.87437186 9.6119403,6.75376884 9.85074627,6.69346734 L9.85074627,6.69346734 L10.7462687,6.51256281 L10.7462687,5.42713568 L9.85074627,5.18592965 C9.6119403,5.12562814 9.43283582,4.94472362 9.37313433,4.7638191 C9.37313433,4.58291457 9.25373134,4.40201005 9.19402985,4.28140704 C9.07462687,4.10050251 9.07462687,3.85929648 9.19402985,3.67839196 L9.19402985,3.67839196 L9.73134328,2.89447236 L9.01492537,2.17085427 L8.23880597,2.71356784 C8.05970149,2.83417085 7.82089552,2.89447236 7.64179104,2.77386935 C7.40298507,2.65326633 7.28358209,2.59296482 7.10447761,2.53266332 C6.86567164,2.4120603 6.74626866,2.29145729 6.68656716,2.05025126 L6.68656716,2.05025126 L6.50746269,1.14572864 Z M5.97014925,3.55778894 C7.28358209,3.55778894 8.35820896,4.64321608 8.35820896,5.96984925 C8.35820896,7.29648241 7.28358209,8.38190955 5.97014925,8.38190955 C4.65671642,8.38190955 3.58208955,7.29648241 3.58208955,5.96984925 C3.58208955,4.64321608 4.65671642,3.55778894 5.97014925,3.55778894 Z M5.97014925,4.7638191 C5.31343284,4.7638191 4.7761194,5.30653266 4.7761194,5.96984925 C4.7761194,6.63316583 5.31343284,7.1758794 5.97014925,7.1758794 C6.62686567,7.1758794 7.1641791,6.63316583 7.1641791,5.96984925 C7.1641791,5.30653266 6.62686567,4.7638191 5.97014925,4.7638191 Z"/></svg>