<svg xmlns="http://www.w3.org/2000/svg" width="12" height="12" viewBox="0 0 12 12"><path fill-rule="evenodd" d="M6,4.12915824 L9.74168352,0.387474714 C10.2583165,-0.129158238 11.0958923,-0.129158238 11.6125253,0.387474714 C12.1291582,0.904107667 12.1291582,1.74168352 11.6125253,2.25831648 L7.87084176,6 L11.6125253,9.74168352 C12.1291582,10.2583165 12.1291582,11.0958923 11.6125253,11.6125253 C11.0958923,12.1291582 10.2583165,12.1291582 9.74168352,11.6125253 L6,7.87084176 L2.25831648,11.6125253 C1.74168352,12.1291582 0.904107667,12.1291582 0.387474714,11.6125253 C-0.129158238,11.0958923 -0.129158238,10.2583165 0.387474714,9.74168352 L4.12915824,6 L0.387474714,2.25831648 C-0.129158238,1.74168352 -0.129158238,0.904107667 0.387474714,0.387474714 C0.904107667,-0.129158238 1.74168352,-0.129158238 2.25831648,0.387474714 L6,4.12915824 Z"/></svg>