<svg xmlns="http://www.w3.org/2000/svg" width="12" height="12" viewBox="0 0 12 12"><path fill-rule="evenodd" d="M10.0938166,5.11727079 C11.1465726,5.11727079 12,5.97069815 12,7.02345416 C12,8.07621016 11.1465726,8.92963753 10.0938166,8.92963753 L9.95309168,8.92963753 L9.95309168,10.3496802 C9.95309168,11.2611266 9.21421833,12 8.30277186,12 L6.25586354,12 C5.90965519,12 5.62899787,11.7193427 5.62899787,11.3731343 L5.62899787,10.6055437 C5.62899787,10.2452044 5.33688515,9.95309168 4.97654584,9.95309168 C4.61620654,9.95309168 4.32409382,10.2452044 4.32409382,10.6055437 L4.32409382,11.3731343 C4.32409382,11.7193427 4.0434365,12 3.69722814,12 L1.65031983,12 C0.738873355,12 0,11.2611266 0,10.3496802 L0,8.30277186 C0,7.9565635 0.280657321,7.67590618 0.626865672,7.67590618 L1.39445629,7.67590618 C1.75479559,7.67590618 2.04690832,7.38379346 2.04690832,7.02345416 C2.04690832,6.66311485 1.75479559,6.37100213 1.39445629,6.37100213 L0.626865672,6.37100213 C0.280657321,6.37100213 0,6.09034481 0,5.74413646 L0,3.69722814 C0,2.78578167 0.738873355,2.04690832 1.65031983,2.04690832 L3.07036247,2.04690832 L3.07036247,1.90618337 C3.07036247,0.853427364 3.92378984,0 4.97654584,0 C6.02930185,0 6.88272921,0.853427364 6.88272921,1.90618337 L6.88272921,2.04690832 L8.30277186,2.04690832 C9.21421833,2.04690832 9.95309168,2.78578167 9.95309168,3.69722814 L9.95309168,5.11727079 L10.0938166,5.11727079 Z M8.30277186,10.7462687 C8.52180163,10.7462687 8.69936034,10.5687099 8.69936034,10.3496802 L8.69936034,8.30277186 C8.69936034,7.9565635 8.98001766,7.67590618 9.32622601,7.67590618 L10.0938166,7.67590618 C10.4541559,7.67590618 10.7462687,7.38379346 10.7462687,7.02345416 C10.7462687,6.66311485 10.4541559,6.37100213 10.0938166,6.37100213 L9.32622601,6.37100213 C8.98001766,6.37100213 8.69936034,6.09034481 8.69936034,5.74413646 L8.69936034,3.69722814 C8.69936034,3.47819837 8.52180163,3.30063966 8.30277186,3.30063966 L6.25586354,3.30063966 C5.90965519,3.30063966 5.62899787,3.01998234 5.62899787,2.67377399 L5.62899787,1.90618337 C5.62899787,1.54584407 5.33688515,1.25373134 4.97654584,1.25373134 C4.61620654,1.25373134 4.32409382,1.54584407 4.32409382,1.90618337 L4.32409382,2.67377399 C4.32409382,3.01998234 4.0434365,3.30063966 3.69722814,3.30063966 L1.65031983,3.30063966 C1.43129006,3.30063966 1.25373134,3.47819837 1.25373134,3.69722814 L1.25373134,5.11727079 L1.39445629,5.11727079 C2.44721229,5.11727079 3.30063966,5.97069815 3.30063966,7.02345416 C3.30063966,8.07621016 2.44721229,8.92963753 1.39445629,8.92963753 L1.25373134,8.92963753 L1.25373134,10.3496802 C1.25373134,10.5687099 1.43129006,10.7462687 1.65031983,10.7462687 L3.07036247,10.7462687 L3.07036247,10.6055437 C3.07036247,9.55278771 3.92378984,8.69936034 4.97654584,8.69936034 C6.02930185,8.69936034 6.88272921,9.55278771 6.88272921,10.6055437 L6.88272921,10.7462687 L8.30277186,10.7462687 Z"/></svg>