<svg xmlns="http://www.w3.org/2000/svg" width="12" height="12" viewBox="0 0 12 12"><path fill-rule="evenodd" d="M0.523850214,0.652930938 C0.784233249,0.652930938 1.00024549,0.842904879 1.04084411,1.09180993 L1.04770043,1.17678115 L1.047,10.2989309 L11.4761498,10.2993686 C11.7654643,10.2993686 12,10.5339044 12,10.8232188 C12,11.0836019 11.8100261,11.2996141 11.561121,11.3402127 L11.4761498,11.3470691 L0.523850214,11.3470691 L0.446,11.3399309 L0.470289572,11.3443645 L0.470289572,11.3443645 L0.523850214,11.3470691 C0.492387264,11.3470691 0.461572158,11.3442953 0.431636089,11.338979 L0.446,11.3399309 L0.418276124,11.3364263 L0.418276124,11.3364263 C0.394541559,11.3315695 0.371391687,11.3251076 0.348944878,11.3171589 L0.314355895,11.3035001 L0.314355895,11.3035001 C0.299477509,11.2970045 0.284874409,11.2897908 0.270674683,11.281937 C0.261295133,11.2767553 0.251874263,11.271156 0.2426498,11.2652759 C0.225468134,11.254313 0.209147136,11.2425211 0.193568216,11.2298519 C0.187680421,11.2250718 0.181586057,11.2198887 0.175614211,11.214571 C0.161369711,11.2018784 0.147938898,11.1885479 0.135256187,11.1745279 L0.113118489,11.1483963 L0.113118489,11.1483963 C0.102608191,11.1351359 0.0927560703,11.1214005 0.0835729964,11.1071922 C0.0775479073,11.0978856 0.07161671,11.0880301 0.0660074297,11.0779706 C0.0577672426,11.0631664 0.050387663,11.0482946 0.0437134181,11.0330437 C0.0384621264,11.0210439 0.0336494677,11.008815 0.0292931473,10.9963718 C0.0194734172,10.9684359 0.0118421102,10.9387574 0.00685631491,10.9081901 L0,10.8232188 L0,1.17678115 C0,0.887466668 0.234535729,0.652930938 0.523850214,0.652930938 Z M3.54828897,6 C3.82443134,6 4.04828897,6.22385763 4.04828897,6.5 L4.04828897,8.77309609 C4.04828897,9.04923846 3.82443134,9.27309609 3.54828897,9.27309609 L2.80212159,9.27309609 C2.52597921,9.27309609 2.30212159,9.04923846 2.30212159,8.77309609 L2.30212159,6.5 C2.30212159,6.22385763 2.52597921,6 2.80212159,6 L3.54828897,6 Z M6.48921695,2.10350891 C6.76535932,2.10350891 6.98921695,2.32736653 6.98921695,2.60350891 L6.98921695,8.77309609 C6.98921695,9.04923846 6.76535932,9.27309609 6.48921695,9.27309609 L5.74304957,9.27309609 C5.46690719,9.27309609 5.24304957,9.04923846 5.24304957,8.77309609 L5.24304957,2.60350891 C5.24304957,2.32736653 5.46690719,2.10350891 5.74304957,2.10350891 L6.48921695,2.10350891 Z M9.43014493,4.23257407 C9.7062873,4.23257407 9.93014493,4.45643169 9.93014493,4.73257407 L9.93014493,8.77309609 C9.93014493,9.04923846 9.7062873,9.27309609 9.43014493,9.27309609 L8.68397755,9.27309609 C8.40783517,9.27309609 8.18397755,9.04923846 8.18397755,8.77309609 L8.18397755,4.73257407 C8.18397755,4.45643169 8.40783517,4.23257407 8.68397755,4.23257407 L9.43014493,4.23257407 Z"/></svg>