<svg xmlns="http://www.w3.org/2000/svg" width="12" height="12" viewBox="0 0 12 12">
  <path fill-rule="evenodd" d="M8.43902833,2.88657986e-15 C10.4568717,2.88657986e-15 12,1.84376526 12,3.81376587 C12,6.60410028 10.0288865,8.98812864 6.43250363,11.8462232 C6.17450405,12.051259 5.82549649,12.0512589 5.567497,11.846223 C1.97110986,8.98812226 -1.13242749e-14,6.60409943 -1.13242749e-14,3.81376587 C-1.13242749e-14,1.84376551 1.5431315,2.88657986e-15 3.56097618,2.88657986e-15 C4.45826683,2.88657986e-15 5.23337734,0.454402731 6,1.26683906 C6.76662607,0.454397198 7.54172831,2.88657986e-15 8.43902833,2.88657986e-15 Z M10.5263158,3.81376587 C10.5263158,2.70631783 9.61326575,1.61538462 8.43902833,1.61538462 C7.87420404,1.61538462 7.25835246,2.08197702 6.55872114,2.97394281 C6.26471909,3.34876847 5.73528084,3.34876813 5.4412792,2.97394209 C4.74165797,2.08198702 4.12579171,1.61538462 3.56097618,1.61538462 C2.38673674,1.61538462 1.47368421,2.7063187 1.47368421,3.81376587 C1.47368421,5.77407191 3.07327718,7.79890903 6.00000064,10.1899919 C8.92672054,7.79891372 10.5263158,5.77407277 10.5263158,3.81376587 Z"/>
</svg>
