<svg xmlns="http://www.w3.org/2000/svg" width="12" height="12" viewBox="0 0 12 12"><path d="M6,7.99360578e-15 C9.3137085,7.99360578e-15 12,2.6862915 12,6 C12,9.3137085 9.3137085,12 6,12 C2.6862915,12 -1.77635684e-15,9.3137085 -1.77635684e-15,6 C-1.77635684e-15,2.6862915 2.6862915,7.99360578e-15 6,7.99360578e-15 Z M6,1.24120554 C3.37179039,1.24120554 1.24120554,3.37179039 1.24120554,6 C1.24120554,8.62820961 3.37179039,10.7587945 6,10.7587945 C8.62820961,10.7587945 10.7587945,8.62820961 10.7587945,6 C10.7587945,3.37179039 8.62820961,1.24120554 6,1.24120554 Z M6.62759078,7.73850567 C6.73804773,7.73850567 6.82759078,7.82804872 6.82759078,7.93850567 L6.82759078,9.19116979 C6.82759078,9.30162674 6.73804773,9.39116979 6.62759078,9.39116979 L5.37240922,9.39116979 C5.26195227,9.39116979 5.17240922,9.30162674 5.17240922,9.19116979 L5.17240922,7.93850567 C5.17240922,7.82804872 5.26195227,7.73850567 5.37240922,7.73850567 L6.62759078,7.73850567 Z M6.62759078,2.60883021 C6.73804773,2.60883021 6.82759078,2.69837326 6.82759078,2.80883021 L6.82759078,6.65116303 C6.82759078,6.76161998 6.73804773,6.85116303 6.62759078,6.85116303 L5.37240922,6.85116303 C5.26195227,6.85116303 5.17240922,6.76161998 5.17240922,6.65116303 L5.17240922,2.80883021 C5.17240922,2.69837326 5.26195227,2.60883021 5.37240922,2.60883021 L6.62759078,2.60883021 Z"/></svg>