<svg xmlns="http://www.w3.org/2000/svg" width="12" height="12" viewBox="0 0 12 12">
  <path fill-rule="evenodd" d="M6.62809163,4.45687688 C6.8799854,4.20498312 7.28739619,4.20498312 7.53928995,4.45687688 C8.79437802,5.71196495 8.79437802,7.76435156 7.53928995,9.01943963 L7.53928995,9.01943963 L5.50004563,11.0586839 C4.24495756,12.313772 2.19257096,12.313772 0.939673268,11.0586839 C-0.313224423,9.80578626 -0.313224423,7.75120927 0.939673268,6.49831158 L0.939673268,6.49831158 L1.39527243,6.04052204 C1.6471662,5.78862827 2.05457698,5.78862827 2.30647075,6.04052204 C2.55836452,6.29241581 2.55836452,6.70201698 2.30647075,6.95391074 L2.30647075,6.95391074 L1.85087159,7.4095099 C1.09738067,8.1651912 1.09738067,9.39399471 1.85087159,10.1474856 C2.60436251,10.8987862 3.83535639,10.8987862 4.58665693,10.1474856 L4.58665693,10.1474856 L6.62809163,8.10605093 C7.38158255,7.35475039 7.37939217,6.1237565 6.62809163,5.37026558 C6.37619786,5.11837182 6.37619786,4.70877065 6.62809163,4.45687688 Z M6.4966688,0.941316054 C7.74956649,-0.313772018 9.80414347,-0.313772018 11.0570412,0.941316054 C12.3099389,2.19421374 12.3099389,4.24879073 11.0570412,5.50168842 L11.0570412,5.50168842 L10.601442,5.95728758 C10.3495482,6.20918135 9.93994707,6.20918135 9.6880533,5.95728758 C9.43615953,5.70539381 9.43615953,5.29798302 9.6880533,5.04608926 L9.6880533,5.04608926 L10.1458428,4.58829972 C10.8993338,3.8348088 10.8993338,2.60600529 10.1458428,1.85251437 C9.39235192,1.09902346 8.16135804,1.09902346 7.40786712,1.85251437 L7.40786712,1.85251437 L5.3686228,3.89175869 C4.61513188,4.64524961 4.61513188,5.8762435 5.3686228,6.62973442 C5.62051656,6.88162818 5.62051656,7.28903897 5.3686228,7.54093274 C5.11672903,7.7928265 4.70931824,7.7928265 4.45742448,7.54093274 C3.20233641,6.28803505 3.20233641,4.23345806 4.4552341,2.98056037 L4.4552341,2.98056037 Z"/>
</svg>
