<svg xmlns="http://www.w3.org/2000/svg" width="24" height="24" viewBox="0 0 12 12">
	<path d="M4.24172407,1.97747577 C4.41984928,2.32059447 4.28609563,2.74314616 3.94297693,2.92127137 C2.56879102,3.63466052 1.7,5.00255246 1.7,6.51203341 C1.7,8.76280677 3.61855268,10.6 6,10.6 C8.38144732,10.6 10.3,8.76280677 10.3,6.51203341 C10.3,5.0267941 9.45913061,3.67774159 8.11978768,2.95450631 C7.7796158,2.77081601 7.65276241,2.3461418 7.83645271,2.00596991 C8.02014301,1.66579803 8.44481722,1.53894464 8.78498911,1.72263495 C10.5680662,2.6854834 11.7,4.50150636 11.7,6.51203341 C11.7,9.54990191 9.14140018,12 6,12 C2.85859982,12 0.3,9.54990191 0.3,6.51203341 C0.3,4.4688477 1.46908769,2.6281454 3.29792846,1.67872863 C3.64104717,1.50060341 4.06359886,1.63435706 4.24172407,1.97747577 Z M6,-6.21724894e-15 C6.40784105,-6.21724894e-15 6.74440158,0.305188147 6.79376686,0.6996497 L6.8,0.8 L6.8,5.3 C6.8,5.7418278 6.4418278,6.1 6,6.1 C5.59215895,6.1 5.25559842,5.79481185 5.20623314,5.4003503 L5.2,5.3 L5.2,0.8 C5.2,0.3581722 5.5581722,-6.21724894e-15 6,-6.21724894e-15 Z"/>
</svg>
