<svg xmlns="http://www.w3.org/2000/svg" width="12" height="12" viewBox="0 0 12 12"><path fill-rule="evenodd" d="M10,1.17327019 C11.1046,1.17327019 12,2.06867019 12,3.17327019 L12,8.82672981 C12,9.93132981 11.1046,10.8267298 10,10.8267298 L2,10.8267298 C0.8954,10.8267298 -4.52970994e-14,9.93132981 -4.52970994e-14,8.82672981 L-4.52970994e-14,3.17327019 C-4.52970994e-14,2.06867019 0.8954,1.17327019 2,1.17327019 L10,1.17327019 Z M10.5,4.45427019 L6.43703665,7.36794158 C6.17578809,7.55526538 5.82421191,7.55526538 5.56296335,7.36794158 L1.5,4.45527019 L1.5,8.82672981 C1.5,9.10287219 1.72385763,9.32672981 2,9.32672981 L10,9.32672981 C10.2761424,9.32672981 10.5,9.10287219 10.5,8.82672981 L10.5,4.45427019 Z M10,2.67327019 L2,2.67327019 C1.89436458,2.67327019 1.79638034,2.70602875 1.71565184,2.76194131 L6,5.83555765 L10.2843482,2.76194131 C10.2036197,2.70602875 10.1056354,2.67327019 10,2.67327019 Z"/></svg>