<svg xmlns="http://www.w3.org/2000/svg" width="12" height="12" viewBox="0 0 12 12"><path fill-rule="evenodd" d="M6.33817648,9.32364703 C7.07720675,9.32364703 7.67635297,9.92279325 7.67635297,10.6618235 C7.67635297,11.4008538 7.07720675,12 6.33817648,12 C5.59914622,12 5,11.4008538 5,10.6618235 C5,9.92279325 5.59914622,9.32364703 6.33817648,9.32364703 Z M6.33817648,4.6957867 C7.07720675,4.6957867 7.67635297,5.29493291 7.67635297,6.03396318 C7.67635297,6.77299345 7.07720675,7.37213966 6.33817648,7.37213966 C5.59914622,7.37213966 5,6.77299345 5,6.03396318 C5,5.29493291 5.59914622,4.6957867 6.33817648,4.6957867 Z M6.33817648,-2.5313085e-14 C7.07720675,-2.5313085e-14 7.67635297,0.599146217 7.67635297,1.33817648 C7.67635297,2.07720675 7.07720675,2.67635297 6.33817648,2.67635297 C5.59914622,2.67635297 5,2.07720675 5,1.33817648 C5,0.599146217 5.59914622,-2.5313085e-14 6.33817648,-2.5313085e-14 Z"/></svg>