<svg xmlns="http://www.w3.org/2000/svg" width="12" height="12" viewBox="0 0 12 12">
  <path fill-rule="evenodd" d="M9.7654738,0 C10.9995685,0 12,1.05728617 12,2.36151475 L12,7.08454426 C12,8.38877284 10.9995685,9.44605901 9.7654738,9.44605901 L2.559,9.446 L3.65384326,10.672771 C3.93606866,10.9890616 3.92224129,11.4872568 3.62295895,11.7855211 C3.32367662,12.0837854 2.85227146,12.0691722 2.57004606,11.7528816 L0.202943503,9.10006481 C-0.0659666016,8.79869669 -0.0678641087,8.3286421 0.198603138,8.02486015 L2.56570569,5.32628077 C2.84536728,5.00745682 3.3166373,4.98859345 3.61831675,5.28414826 C3.9199962,5.57970306 3.93784521,6.07775545 3.65818362,6.3965794 L2.364,7.871 L9.7654738,7.87171584 C10.1768387,7.87171584 10.5103159,7.51928712 10.5103159,7.08454426 L10.5103159,2.36151475 C10.5103159,1.92677189 10.1768387,1.57434317 9.7654738,1.57434317 L5.36562494,1.57434317 C4.95426003,1.57434317 4.62078288,1.22191445 4.62078288,0.787171584 C4.62078288,0.352428723 4.95426003,0 5.36562494,0 L9.7654738,0 Z"/>
</svg>
