<svg xmlns="http://www.w3.org/2000/svg" width="12" height="12" viewBox="0 0 12 12"><path d="M2,1.5 C1.72385763,1.5 1.5,1.72385763 1.5,2 L1.5,10 C1.5,10.2761424 1.72385763,10.5 2,10.5 L10,10.5 C10.2761424,10.5 10.5,10.2761424 10.5,10 L10.5,2 C10.5,1.72385763 10.2761424,1.5 10,1.5 L2,1.5 Z M2,0 L10,0 C11.1046,0 12,0.8954 12,2 L12,10 C12,11.1046 11.1046,12 10,12 L2,12 C0.8954,12 0,11.1046 0,10 L0,2 C0,0.8954 0.8954,0 2,0 Z M1,3.5 L11,3.5 L11,5 L1,5 L1,3.5 Z M6.8,0 L6.8,12 L5.3,12 L5.3,0 L6.8,0 Z M1,6.9 L11,6.9 L11,8.4 L1,8.4 L1,6.9 Z"/></svg>