<svg xmlns="http://www.w3.org/2000/svg" width="10" height="12" viewBox="0 0 10 12">
  <path fill-rule="evenodd" d="M8.87234043,10.5882353 C9.24248872,10.5882353 9.54255319,10.9042696 9.54255319,11.2941176 C9.54255319,11.6839657 9.24248872,12 8.87234043,12 L3.12765957,12 C2.75751128,12 2.45744681,11.6839657 2.45744681,11.2941176 C2.45744681,10.9042696 2.75751128,10.5882353 3.12765957,10.5882353 L8.87234043,10.5882353 Z M6,1.77080572e-14 C8.48528137,1.77080572e-14 10.5,2.12194455 10.5,4.7394958 C10.5,7.35704705 8.48528137,9.4789916 6,9.4789916 C3.51471863,9.4789916 1.5,7.35704705 1.5,4.7394958 C1.5,2.12194455 3.51471863,1.77080572e-14 6,1.77080572e-14 Z M6,1.41176471 C4.25501521,1.41176471 2.84042553,2.90164066 2.84042553,4.7394958 C2.84042553,6.57735093 4.25501521,8.06722689 6,8.06722689 C7.74498479,8.06722689 9.15957447,6.57735093 9.15957447,4.7394958 C9.15957447,2.90164066 7.74498479,1.41176471 6,1.41176471 Z" transform="translate(-1)"/>
</svg>
