<svg xmlns="http://www.w3.org/2000/svg" width="12" height="12" viewBox="0 0 12 12"><path fill-rule="evenodd" d="M9.61504509,3.68523065 L7.12217126,3.68523065 L7.95829043,0.789780922 C8.01141657,0.604091069 7.97487565,0.404247088 7.85947803,0.249371338 C7.74408042,0.0944955875 7.56303779,0.00231954692 7.36991027,5.5554546e-05 L3.96349882,5.5554546e-05 C3.68393274,-0.00366994915 3.4364971,0.180320653 3.35963498,0.449139777 L1.79578245,5.99230022 C1.74190072,6.18061109 1.78027069,6.38331147 1.89925065,6.53890065 C2.01823061,6.69448983 2.20379649,6.78462864 2.3996463,6.78196833 L4.55187898,6.78196833 L4.11833571,11.3341727 C4.0940863,11.6123368 4.25896145,11.8723322 4.52091161,11.9690039 L4.73768324,11.9999858 C4.94087031,12.0013592 5.13181442,11.902994 5.24864496,11.7367486 L10.1260068,4.64521933 C10.2506858,4.45592194 10.2619973,4.21363692 10.1554976,4.01354653 C10.0489979,3.81345614 9.84170139,3.68752699 9.61504509,3.68523065 Z M5.57380242,9.0890379 L5.83702512,6.20907186 C5.85458529,6.03437252 5.79717061,5.86042951 5.67906295,5.73051108 C5.56095528,5.60059265 5.39325504,5.52690924 5.21767758,5.52778957 L3.22028178,5.52778957 L4.42800948,1.2233242 L6.54927479,1.2233242 L5.69767192,4.13425761 C5.64379019,4.32256848 5.68216016,4.52526886 5.80114013,4.68085804 C5.92012009,4.83644722 6.10568596,4.92658603 6.30153577,4.92392572 L8.43828477,4.92392572 L5.57380242,9.0890379 Z"/></svg>