<svg xmlns="http://www.w3.org/2000/svg" width="12" height="12" viewBox="0 0 12 12">
  <path fill-rule="evenodd" d="M9.413,8.3804 L9.1012,11.1134 C9.0435443,11.618548 8.61602768,12 8.1076,12 L3.895,12 C3.38547199,12 2.95745189,11.6168134 2.9012,11.1104 L2.1667,4.5 L0.75,4.5 C0.335786438,4.5 0,4.16421356 0,3.75 C0,3.33578644 0.335786438,3 0.75,3 L11.25,3 C11.6642136,3 12,3.33578644 12,3.75 C12,4.16421356 11.6642136,4.5 11.25,4.5 L3.6759,4.5 L4.3426,10.5 L7.6614,10.5 L8.0747,6.8791 L9.583,6.8791 L9.413,8.3804 Z M3.75,9e-16 L8.25,9e-16 C8.66421356,9e-16 9,0.335786438 9,0.75 C9,1.16421356 8.66421356,1.5 8.25,1.5 L3.75,1.5 C3.33578644,1.5 3,1.16421356 3,0.75 C3,0.335786438 3.33578644,9e-16 3.75,9e-16 Z"/>
</svg>
