<svg xmlns="http://www.w3.org/2000/svg" width="32" height="32" viewBox="0 0 32 32">
	<g fill="none" fill-rule="evenodd">
		<path fill="#3C505D" stroke="none" stroke-width="2" d="M19.4145715,3.7109171 C19.3246344,4.12390807 18.9708395,4.35428645 18.978914,4.90415528 C18.9892877,5.62629942 19.1760821,6.78378874 18.978914,7.64044973 C18.5857269,9.33725195 18.1777769,10.4890851 17.4207634,11.3982721 C16.6002238,12.3837552 15.911025,12.9204742 15.6239196,13.7216763 C15.4163731,14.2998639 15.6105019,15.1807371 15.8457207,15.3435728 C16.1409007,15.5512489 16.9399522,15.5087708 17.4207634,15.4851693 L22.2740938,15.421452 C22.6649727,15.4013915 23.0766032,15.3801526 23.5009203,15.3801526 C23.9679002,15.3801526 24.4498654,15.4061114 24.9399055,15.4851693 C25.5256488,15.5795678 26.0952478,15.7494831 26.6636925,15.9264804 C26.9035234,16.0008184 27.1433541,16.0751566 27.3854886,16.1400549 C28.2205755,16.3627764 28.8004084,16.3602662 28.798533,16.3489097 C28.5578364,14.9249748 29.3542957,13.5228723 28.798533,12.2316872 C28.7503926,12.1209171 28.6947596,12.0145715 28.6444601,11.9049827 C28.4259581,11.4247321 28.1849731,10.9573143 27.9259726,10.5011083 C27.8170149,10.3102461 27.7053112,10.1214518 27.5895773,9.93531005 C27.3594033,9.56288157 27.1109255,9.20343111 26.8542288,8.85032335 C26.71644,8.66138016 26.5851386,8.46712768 26.4402898,8.28408389 C26.0602221,7.80294983 25.6592538,7.33907196 25.230613,6.90100666 C25.0906649,6.75793499 24.9363034,6.63049803 24.7915989,6.49244018 C24.4639902,6.18004251 24.1296102,5.87457715 23.7775032,5.58828619 C23.5928725,5.43754423 23.4008933,5.29683252 23.2102128,5.15390844 C22.8448421,4.88118614 22.469675,5.44635383 22.0816819,5.202541 C21.9225642,5.10194874 21.7648843,4.99943826 21.6024529,4.90415528 C21.0366005,4.57420493 20.4554691,4.2654948 19.8481129,4 C19.7650913,4.20177619 19.4549255,3.52448122 19.4145715,3.7109171 Z"/>
		<path fill="#3C505D" stroke="#3C505D" stroke-linejoin="round" stroke-width="2" d="M16.0743729,24.5119004 L16.398453,24.2193434 C17.144428,23.544302 17.6759176,22.9364035 18,22.387259 C17.3082363,22.3069259 16.5728686,22.2889398 15.8139295,22.2709537 C14.1628877,22.2313885 12.4564574,22.1906206 10.7570977,21.5263711 C9.94394983,21.2086343 9.24511544,20.7901804 8.56984997,20.3849165 C8.09963738,20.1043468 7.63178409,19.8189836 7.1332884,19.5971682 C6.11390814,19.1451402 5.30457264,18.9171868 4,19.0274959 C5.28144363,22.2155092 7.04711294,25.0307716 9.7886868,26.999845 C9.8007662,27.0085367 9.8121083,27.0182786 9.8243351,27.0269704 C10.1921665,27.2897016 10.5767909,27.5277079 10.9639197,27.7615135 C11.0799977,27.8312071 11.4977643,27.6945206 11.615612,27.7615135 C11.9183324,27.9346223 11.9210756,27.8202649 12.2339609,27.975085 C12.4051349,28.0593165 12.4949032,27.8963995 12.6691688,27.975085 C13.3386906,26.1593362 14.8228341,25.6332738 16.0743729,24.5119004 Z"/>
		<path fill="#3C505D" d="M8.97659756,13.3553341 C11.1567828,13.3553341 11.1945432,9.48073001 11.1945432,7.35533406 C11.1945432,5.2299381 11.2692253,-0.423447285 7.33524081,1.35533406 C5.96308941,1.97576287 5.90616716,2.40910665 5.4071822,3.09136583 C4.92391807,3.75213001 5.92529701,4.25629422 5.72358232,5.00305659 C5.53644064,5.69586862 4.91891135,6.30262954 5.06725025,6.93965337 C5.53897814,8.96543302 4.17229312,8.3219218 5.58964194,9.90382904 C7.05387874,11.5380681 7.86876739,13.3553341 8.97659756,13.3553341 Z" transform="rotate(42 8.06 7.185)"/>
		<g stroke-linejoin="square">
			<circle cx="16" cy="16" r="14.3" stroke="#FFF" stroke-width="3.4"/>
			<circle cx="16" cy="16" r="14.8" stroke="#3C505D" stroke-width="2.4"/>
		</g>
	</g>
</svg>
